<svg width="160" height="42" viewBox="0 0 160 42" fill="none" xmlns="http://www.w3.org/2000/svg">
<path opacity="0.56" d="M15.4837 3.91667C15.4837 2.02896 17.0235 0.5 18.9246 0.5H20.645C32.0472 0.5 41.2902 9.67802 41.2902 21V38.0833C41.2902 39.971 39.7504 41.5 37.8493 41.5H36.1289C24.7268 41.5 15.4837 32.322 15.4837 21V3.91667Z" fill="#C9C9C9"/>
<path opacity="0.88" d="M17.2043 41.4999C26.706 41.4999 34.4086 33.8515 34.4086 24.4166C34.4086 14.9817 26.706 7.33325 17.2043 7.33325C7.70263 7.33325 0 14.9817 0 24.4166C0 33.8515 7.70263 41.4999 17.2043 41.4999Z" fill="#AFAFAF"/>
<path d="M64.8184 33.0732H70.5586L62.4997 10.75H56.2244L48.172 33.0732H53.8464L55.1806 29.13H63.4838L64.8184 33.0732ZM62.0903 24.9325H56.6077L59.329 16.7601L62.0903 24.9325ZM81.1544 26.4271L77.0653 15.3291H71.0081L78.2081 32.469L74.1458 41.5H79.9849L91.0825 15.3291H85.2167L81.1544 26.4271ZM98.461 24.8371C98.461 21.7844 99.9539 20.894 102.524 20.894H104.01V15.1383C101.632 15.1383 99.6963 16.4103 98.461 18.2864V15.3291H93.0378V33.0732H98.461V24.8371ZM123.913 24.2011C123.913 18.5726 119.923 15.0747 114.718 15.0747C109.552 15.0747 105.523 18.5726 105.523 24.2011C105.523 29.8296 109.46 33.3275 114.658 33.3275C119.857 33.3275 123.913 29.8296 123.913 24.2011ZM111.045 24.2011C111.045 21.1802 112.756 19.781 114.718 19.781C116.62 19.781 118.397 21.1802 118.397 24.2011C118.397 27.1903 116.594 28.6213 114.658 28.6213C112.69 28.6213 111.045 27.1903 111.045 24.2011ZM135.658 24.9007C135.658 30.6564 139.397 33.2958 143.968 33.2958C148.532 33.2958 152.305 30.6564 152.305 24.9007V10.909H149.418V24.9325C149.418 29.0029 147.264 30.7518 143.994 30.7518C140.731 30.7518 138.545 29.0029 138.545 24.9325V10.909H135.658V24.9007ZM157.12 33.0732H160V10.909H157.12V33.0732Z" fill="#2D2D2D"/>
</svg>
