<svg width="88" height="88" viewBox="0 0 88 88" fill="none" xmlns="http://www.w3.org/2000/svg">
<rect width="88" height="88" rx="10" fill="white"/>
<g clip-path="url(#clip0_229_235)">
<path d="M56.7059 20C54.4721 20 52.2885 20.664 50.4312 21.9079C48.5739 23.1518 47.1263 24.9199 46.2715 26.9885C45.4166 29.0571 45.193 31.3333 45.6288 33.5293C46.0645 35.7253 47.1402 37.7425 48.7197 39.3257C50.2992 40.909 52.3116 41.9872 54.5025 42.424C56.6933 42.8608 58.9642 42.6366 61.0279 41.7798C63.0917 40.9229 64.8556 39.4719 66.0966 37.6102C67.3376 35.7485 68 33.5598 68 31.3208C68 28.3183 66.8101 25.4388 64.692 23.3158C62.574 21.1927 59.7013 20 56.7059 20ZM56.1537 29.1572L58.6635 30.4151C59.3988 30.7917 59.9949 31.3938 60.365 32.1336C60.7352 32.8734 60.8601 33.7124 60.7216 34.5283C60.625 35.1559 60.3719 35.749 59.9858 36.2525C59.5997 36.756 59.0931 37.1537 58.5129 37.4088V37.7484C58.5129 38.1654 58.3477 38.5654 58.0535 38.8602C57.7593 39.1551 57.3603 39.3208 56.9443 39.3208C56.5283 39.3208 56.1293 39.1551 55.8351 38.8602C55.5409 38.5654 55.3757 38.1654 55.3757 37.7484V37.6101C54.7586 37.4123 54.1902 37.0859 53.7079 36.6523C53.2256 36.2187 52.8403 35.6878 52.5772 35.0943C52.4256 34.715 52.4273 34.2914 52.582 33.9133C52.7366 33.5352 53.032 33.2323 53.4056 33.0687C53.7793 32.9052 54.2017 32.8939 54.5835 33.0372C54.9653 33.1805 55.2764 33.4672 55.451 33.8365C55.5766 34.1285 55.7911 34.3734 56.0637 34.536C56.3364 34.6986 56.6534 34.7708 56.9694 34.7421C57.1294 34.7405 57.2835 34.6811 57.4033 34.5748C57.5232 34.4686 57.6008 34.3225 57.6219 34.1635C57.649 34.0022 57.6248 33.8365 57.5527 33.6898C57.4806 33.5431 57.3644 33.4228 57.2204 33.3459L54.7106 32.088C53.9297 31.7052 53.2999 31.0705 52.9221 30.2858C52.5444 29.5011 52.4406 28.6119 52.6274 27.761C52.7479 27.0464 53.0712 26.3817 53.5585 25.8464C54.0459 25.311 54.6767 24.9277 55.3757 24.7421V24.5157C55.3757 24.0987 55.5409 23.6988 55.8351 23.4039C56.1293 23.1091 56.5283 22.9434 56.9443 22.9434C57.3603 22.9434 57.7593 23.1091 58.0535 23.4039C58.3477 23.6988 58.5129 24.0987 58.5129 24.5157V25.0943C59.5132 25.5683 60.3072 26.391 60.7467 27.4088C60.9105 27.7909 60.9167 28.2225 60.7638 28.6091C60.6109 28.9957 60.3115 29.3059 59.931 29.4717C59.7424 29.5547 59.5394 29.5994 59.3335 29.6032C59.1276 29.607 58.923 29.5698 58.7316 29.4938C58.5401 29.4177 58.3657 29.3043 58.2183 29.1602C58.0709 29.0161 57.9535 28.844 57.8729 28.6541C57.7437 28.3728 57.5338 28.1365 57.2701 27.9752C57.0064 27.814 56.7008 27.735 56.3921 27.7484C56.2332 27.756 56.082 27.8193 55.9649 27.9274C55.8479 28.0355 55.7726 28.1814 55.7521 28.3396C55.721 28.5012 55.7434 28.6684 55.8159 28.816C55.8884 28.9636 56.007 29.0834 56.1537 29.1572Z" fill="#530054"/>
<path d="M55.5639 46.6541C55.0765 46.5969 54.5825 46.6424 54.1136 46.7875C53.6447 46.9326 53.2112 47.1742 52.8408 47.4969C52.6912 46.9671 52.3969 46.4898 51.9911 46.1186C51.5854 45.7475 51.0843 45.4973 50.5443 45.3963C50.081 45.3421 49.6116 45.381 49.1635 45.5105C48.7154 45.6401 48.2974 45.8578 47.9341 46.151C47.7386 45.6364 47.4142 45.181 46.9923 44.8285C46.5703 44.476 46.0649 44.2384 45.5247 44.1384C44.9829 44.0793 44.4349 44.1486 43.9248 44.3409C43.4147 44.5332 42.9569 44.843 42.5882 45.2453V37.2956C42.6176 36.7486 42.4681 36.2069 42.1623 35.7528C41.8565 35.2988 41.4113 34.9572 40.8941 34.7799C40.5143 34.6491 40.1087 34.6115 39.7114 34.6703C39.3141 34.7292 38.9366 34.8828 38.6108 35.1182C38.285 35.3536 38.0203 35.6639 37.8389 36.0231C37.6576 36.3823 37.5649 36.7799 37.5686 37.1824V57.3082C36.903 57.3082 36.2646 57.0432 35.7939 56.5714C35.3232 56.0996 35.0588 55.4597 35.0588 54.7925V52.5283C35.0605 52.4133 35.0393 52.2991 34.9965 52.1923C34.9538 52.0856 34.8903 51.9884 34.8097 51.9065C34.7291 51.8246 34.6331 51.7595 34.5272 51.7151C34.4213 51.6707 34.3077 51.6478 34.1929 51.6478H33.4275C32.9814 51.6478 32.5398 51.7361 32.1279 51.9076C31.716 52.079 31.342 52.3303 31.0272 52.647C30.7124 52.9637 30.4631 53.3396 30.2935 53.7531C30.124 54.1666 30.0376 54.6096 30.0392 55.0567V61.2579C30.035 61.7939 30.1447 62.3247 30.3611 62.8148C30.5774 63.305 30.8955 63.7434 31.2941 64.1007L34.6698 67.0692C35.3644 67.6771 36.2575 68.0084 37.1796 68H51.0714C52.0695 67.9992 53.0264 67.601 53.7318 66.8931L56.5427 64.0252C57.2368 63.3306 57.633 62.3919 57.6471 61.4088V49.2705C57.6621 48.6585 57.4615 48.0608 57.0805 47.5823C56.6996 47.1038 56.1626 46.7752 55.5639 46.6541ZM34.4314 44.1384H31.2941C30.9613 44.1384 30.6421 44.0059 30.4068 43.77C30.1714 43.5341 30.0392 43.2142 30.0392 42.8805V27.7862C30.0392 27.4526 30.1714 27.1327 30.4068 26.8968C30.6421 26.6609 30.9613 26.5283 31.2941 26.5283H43.1153C43.6 25.1802 44.2762 23.9092 45.1231 22.7548H25.0196C23.6883 22.7548 22.4116 23.2849 21.4702 24.2284C20.5289 25.172 20 26.4518 20 27.7862V42.8805C20 44.215 20.5289 45.4947 21.4702 46.4383C22.4116 47.3819 23.6883 47.912 25.0196 47.912H34.4314V44.1384ZM26.011 37.4214C25.591 37.4239 25.1797 37.3014 24.8293 37.0693C24.4789 36.8372 24.2051 36.5061 24.0427 36.1179C23.8803 35.7297 23.8365 35.3019 23.9169 34.8887C23.9973 34.4755 24.1983 34.0955 24.4944 33.797C24.7905 33.4984 25.1683 33.2947 25.58 33.2117C25.9918 33.1286 26.4188 33.17 26.8071 33.3305C27.1953 33.491 27.5273 33.7635 27.7609 34.1133C27.9945 34.4632 28.1192 34.8747 28.1192 35.2956C28.1192 35.8573 27.8975 36.3961 27.5025 36.7944C27.1075 37.1927 26.5713 37.4181 26.011 37.4214Z" fill="#530054"/>
</g>
<defs>
<clipPath id="clip0_229_235">
<rect width="48" height="48" fill="white" transform="translate(20 20)"/>
</clipPath>
</defs>
</svg>
