<svg width="88" height="88" viewBox="0 0 88 88" fill="none" xmlns="http://www.w3.org/2000/svg">
<rect width="88" height="88" rx="10" fill="white"/>
<g clip-path="url(#clip0_231_260)">
<path d="M66.2802 49.6993C65.7318 49.0182 64.9324 48.578 64.0561 48.4747C63.1798 48.3714 62.2976 48.6134 61.6015 49.1479L52.1642 56.4349C51.6952 56.7933 51.1183 56.9874 50.5247 56.9863H43.7666C43.3247 56.9863 42.9009 56.8134 42.5884 56.5056C42.2759 56.1978 42.1004 55.7804 42.1004 55.3451C42.1004 54.9098 42.2759 54.4924 42.5884 54.1846C42.9009 53.8768 43.3247 53.7039 43.7666 53.7039H49.4316C50.3154 53.7039 51.163 53.3581 51.788 52.7425C52.4129 52.1269 52.764 51.292 52.764 50.4215C52.764 49.5509 52.4129 48.716 51.788 48.1004C51.163 47.4849 50.3154 47.139 49.4316 47.139H35.5689C33.7829 47.1718 32.0582 47.7858 30.6636 48.8853L26.0116 52.4172C25.8714 52.5259 25.7802 52.6847 25.7577 52.8591C25.7353 53.0335 25.7834 53.2096 25.8916 53.3494L34.8891 64.549C34.9525 64.624 35.032 64.6841 35.1219 64.725C35.2119 64.7658 35.3099 64.7865 35.4089 64.7853L46.2725 64.8772H49.285C51.1071 64.893 52.88 64.2955 54.3102 63.1835L65.7337 54.2947C66.4193 53.753 66.861 52.9673 66.9633 52.1074C67.0656 51.2475 66.8202 50.3825 66.2802 49.6993Z" fill="#530054"/>
<path d="M23.2791 55.3714C23.1691 55.2361 23.0093 55.1492 22.8345 55.1295C22.6597 55.1098 22.4841 55.159 22.346 55.2664L20.2532 56.8944C20.115 57.0051 20.0264 57.1647 20.0065 57.3391C19.9866 57.5134 20.0369 57.6885 20.1466 57.8266L28.9175 68.7505C28.9708 68.819 29.0376 68.8762 29.1139 68.9187C29.1901 68.9612 29.2743 68.9882 29.3614 68.998C29.4484 69.0078 29.5366 69.0002 29.6206 68.9757C29.7047 68.9513 29.7829 68.9104 29.8505 68.8556L31.9966 67.2669C32.0661 67.2143 32.1242 67.1485 32.1673 67.0734C32.2105 66.9983 32.2378 66.9154 32.2478 66.8296C32.2577 66.7439 32.2501 66.657 32.2252 66.5742C32.2004 66.4915 32.1589 66.4145 32.1032 66.3478L23.2791 55.3714ZM48.8985 20C46.5758 20 44.3054 20.6784 42.3742 21.9494C40.443 23.2205 38.9379 25.027 38.049 27.1407C37.1602 29.2543 36.9276 31.5801 37.3808 33.8239C37.8339 36.0678 38.9523 38.1288 40.5947 39.7465C42.237 41.3643 44.3295 42.4659 46.6074 42.9123C48.8854 43.3586 51.2466 43.1295 53.3924 42.254C55.5382 41.3785 57.3723 39.8959 58.6627 37.9937C59.9531 36.0915 60.6418 33.8551 60.6418 31.5673C60.6435 30.0477 60.341 28.5428 59.7515 27.1386C59.1619 25.7344 58.297 24.4586 57.2062 23.3841C56.1153 22.3097 54.8201 21.4577 53.3945 20.877C51.969 20.2963 50.4411 19.9983 48.8985 20ZM48.2453 29.3352L50.9112 30.6482C51.7027 31.0256 52.3458 31.6495 52.7409 32.4233C53.1361 33.197 53.2614 34.0775 53.0973 34.9285C52.9981 35.5846 52.7322 36.2054 52.3244 36.7333C51.9167 37.2612 51.3801 37.6791 50.7646 37.9483V38.3816C50.7646 38.8168 50.5891 39.2343 50.2766 39.5421C49.9641 39.8499 49.5403 40.0228 49.0984 40.0228C48.6565 40.0228 48.2327 39.8499 47.9202 39.5421C47.6078 39.2343 47.4322 38.8168 47.4322 38.3816V38.119C46.7779 37.9103 46.1753 37.5688 45.6633 37.1165C45.1513 36.6642 44.7413 36.1111 44.4597 35.493C44.3642 35.2944 44.3101 35.0789 44.3007 34.8594C44.2914 34.6398 44.3268 34.4206 44.4051 34.2148C44.4833 34.009 44.6027 33.8207 44.7562 33.6612C44.9097 33.5017 45.0942 33.3742 45.2987 33.2863C45.5031 33.1983 45.7235 33.1517 45.9466 33.1492C46.1697 33.1467 46.391 33.1884 46.5975 33.2718C46.8039 33.3551 46.9912 33.4785 47.1484 33.6345C47.3055 33.7905 47.4292 33.9761 47.5122 34.1801C47.6473 34.4837 47.8754 34.7381 48.1647 34.9076C48.4539 35.0771 48.7897 35.1533 49.1251 35.1254C49.2189 35.1289 49.3126 35.1139 49.4005 35.0814C49.4885 35.0488 49.5689 34.9993 49.6372 34.9357C49.7055 34.8721 49.7602 34.7958 49.7981 34.7111C49.8361 34.6265 49.8565 34.5352 49.8582 34.4427C49.8869 34.2743 49.8612 34.1013 49.7846 33.9482C49.7081 33.795 49.5846 33.6695 49.4316 33.5892L46.7657 32.2763C45.9626 31.8785 45.3126 31.2345 44.9135 30.4411C44.5144 29.6478 44.3879 28.7481 44.553 27.8778C44.6834 27.1343 45.0278 26.4433 45.5453 25.887C46.0628 25.3307 46.7316 24.9325 47.4722 24.7398V24.4904C47.4722 24.0551 47.6477 23.6376 47.9602 23.3298C48.2727 23.0221 48.6965 22.8492 49.1384 22.8492C49.5803 22.8492 50.0041 23.0221 50.3166 23.3298C50.629 23.6376 50.8046 24.0551 50.8046 24.4904V25.0943C51.8642 25.593 52.7064 26.4505 53.1772 27.5102C53.2728 27.7088 53.3268 27.9243 53.3362 28.1439C53.3456 28.3634 53.3101 28.5826 53.2319 28.7884C53.1536 28.9943 53.0342 29.1825 52.8807 29.342C52.7272 29.5015 52.5428 29.629 52.3383 29.7169C52.1338 29.8049 51.9135 29.8515 51.6904 29.854C51.4673 29.8565 51.246 29.8148 51.0395 29.7315C50.8331 29.6481 50.6457 29.5247 50.4886 29.3687C50.3315 29.2127 50.2077 29.0272 50.1248 28.8232C49.9897 28.5195 49.7615 28.2651 49.4723 28.0956C49.1831 27.9261 48.8473 27.8499 48.5119 27.8778C48.345 27.8852 48.186 27.9494 48.062 28.0596C47.9379 28.1698 47.8567 28.3191 47.8321 28.4818C47.7957 28.649 47.8164 28.8234 47.8912 28.9778C47.9659 29.1322 48.0904 29.2579 48.2453 29.3352Z" fill="#530054"/>
</g>
<defs>
<clipPath id="clip0_231_260">
<rect width="47" height="49" fill="white" transform="translate(20 20)"/>
</clipPath>
</defs>
</svg>
