<svg width="88" height="88" viewBox="0 0 88 88" fill="none" xmlns="http://www.w3.org/2000/svg">
<rect width="88" height="88" rx="10" fill="white"/>
<g clip-path="url(#clip0_230_240)">
<path d="M31.396 31.4437L28.2671 29.0151C28.9437 27.6047 29.0548 26.0154 28.5804 24.5353C28.1059 23.0552 27.0773 21.7823 25.6809 20.9475C24.2846 20.1126 22.613 19.771 20.9693 19.9846C19.3256 20.1982 17.8185 20.9528 16.7213 22.1117C15.6241 23.2706 15.0095 24.757 14.9888 26.3015C14.9682 27.8459 15.5429 29.3461 16.6087 30.53C17.6746 31.714 19.161 32.5033 20.7985 32.7549C22.4361 33.0065 24.1163 32.7037 25.5345 31.9014L28.7726 34.4445C29.5002 33.3403 30.3823 32.3312 31.396 31.4437ZM37.1481 58.8704L38.0362 55.7552C36.7076 55.4401 35.4302 54.9612 34.2379 54.3311L33.1585 58.1457C32.0987 58.3141 31.1174 58.7741 30.341 59.4662C29.5647 60.1583 29.0288 61.051 28.8024 62.0291C28.576 63.0072 28.6695 64.026 29.0709 64.9542C29.4723 65.8824 30.1631 66.6775 31.0544 67.237C32.2303 67.9907 33.6797 68.2789 35.0839 68.038C36.488 67.7972 37.7319 67.0471 38.5418 65.9528C39.3517 64.8585 39.6613 63.5096 39.4025 62.2029C39.1437 60.8961 38.3377 59.7386 37.1618 58.9849L37.1481 58.8704ZM70.5545 35.0421C69.3299 34.2763 67.8296 33.9922 66.3809 34.2519C64.9322 34.5115 63.6525 35.2938 62.8212 36.428C62.5221 36.8538 62.2877 37.3159 62.1243 37.8013L56.8914 38.1192C57.2615 39.3615 57.4499 40.6446 57.4516 41.9337L62.3976 41.6159C62.8164 42.4546 63.473 43.1711 64.2968 43.6884C64.9032 44.0708 65.5847 44.3383 66.3022 44.4756C67.0198 44.6129 67.7593 44.6173 68.4787 44.4886C69.1981 44.3599 69.8832 44.1006 70.4949 43.7255C71.1066 43.3504 71.6329 42.8669 72.0438 42.3025C72.4547 41.7381 72.7421 41.1039 72.8896 40.4362C73.0371 39.7684 73.0419 39.0801 72.9036 38.4107C72.7653 37.7412 72.4867 37.1036 72.0836 36.5344C71.6806 35.9651 71.161 35.4753 70.5545 35.0929V35.0421Z" fill="#530054"/>
<path d="M42.012 30.6935C39.6301 30.691 37.301 31.3461 35.3194 32.5761C33.3378 33.806 31.7928 35.5554 30.88 37.6029C29.9673 39.6503 29.7277 41.9037 30.1918 44.0779C30.6558 46.2521 31.8025 48.2493 33.4868 49.8167C35.171 51.3841 37.3171 52.4513 39.6534 52.8831C41.9896 53.3149 44.411 53.092 46.6111 52.2426C48.8112 51.3931 50.691 49.9554 52.0126 48.1112C53.3343 46.2671 54.0383 44.0995 54.0356 41.8829C54.0356 38.9153 52.7688 36.0692 50.514 33.9708C48.2591 31.8724 45.2009 30.6935 42.012 30.6935ZM41.3425 39.734L44.0751 41.0691C44.8977 41.4285 45.572 42.0275 45.9961 42.7755C46.4201 43.5234 46.5707 44.3795 46.4252 45.2143C46.3222 45.851 46.0476 46.4531 45.6272 46.9645C45.2067 47.4758 44.654 47.8798 44.0205 48.1388V48.8763C44.0205 49.2978 43.8406 49.7021 43.5203 50.0001C43.2 50.2982 42.7656 50.4657 42.3126 50.4657C41.8596 50.4657 41.4252 50.2982 41.1049 50.0001C40.7846 49.7021 40.6047 49.2978 40.6047 48.8763V48.2405C39.9348 48.037 39.3178 47.7057 38.7932 47.2679C38.2686 46.83 37.8479 46.2952 37.5578 45.6975C37.3766 45.3096 37.3684 44.8707 37.535 44.4773C37.7015 44.0838 38.0292 43.7681 38.4459 43.5994C38.8627 43.4308 39.3343 43.4232 39.7571 43.5782C40.1799 43.7332 40.5192 44.0381 40.7004 44.4259C40.8381 44.7178 41.0698 44.9626 41.3635 45.1266C41.6572 45.2906 41.9984 45.3657 42.3399 45.3414C42.5154 45.3368 42.6833 45.274 42.8135 45.1645C42.9437 45.055 43.0277 44.9058 43.0504 44.7438C43.0845 44.5838 43.0616 44.4177 42.9852 44.2709C42.9087 44.124 42.7829 44.0044 42.6269 43.93L39.8942 42.5949C39.0818 42.208 38.4266 41.5857 38.0274 40.822C37.6281 40.0583 37.5065 39.1945 37.6808 38.3608C37.7917 37.6449 38.1191 36.9731 38.6247 36.4238C39.1303 35.8745 39.7933 35.4702 40.5364 35.2583V35.0167C40.5364 34.5951 40.7163 34.1909 41.0366 33.8928C41.3569 33.5947 41.7913 33.4273 42.2443 33.4273C42.6972 33.4273 43.1317 33.5947 43.4519 33.8928C43.7722 34.1909 43.9522 34.5951 43.9522 35.0167V35.6016C45.0585 36.0833 45.9379 36.9243 46.4252 37.9666C46.5903 38.3501 46.5884 38.7783 46.42 39.1605C46.2517 39.5427 45.93 39.8489 45.5233 40.0142C45.1165 40.1795 44.6565 40.1909 44.2408 40.0461C43.8251 39.9012 43.4864 39.6114 43.2963 39.2381C43.1596 38.9429 42.9261 38.6954 42.6292 38.531C42.3323 38.3666 41.9872 38.2937 41.6431 38.3226C41.4737 38.3302 41.3124 38.3929 41.1876 38.4998C41.0627 38.6067 40.9822 38.751 40.96 38.9075C40.9117 39.0652 40.9235 39.2336 40.9932 39.3841C41.0629 39.5347 41.1863 39.6583 41.3425 39.734Z" fill="#530054"/>
</g>
<defs>
<clipPath id="clip0_230_240">
<rect width="58" height="48" fill="white" transform="translate(15 20)"/>
</clipPath>
</defs>
</svg>
