<svg width="225" height="80" viewBox="0 0 225 80" fill="none" xmlns="http://www.w3.org/2000/svg">
<path d="M72 40.5C72 44.625 68.6237 48 64.4612 48C59.0037 48 56.2287 44.2499 53.5 40.5C50.7713 36.75 47.9962 33 42.5387 33C38.3762 33 35 36.375 35 40.5" stroke="url(#paint0_linear_233_347)" stroke-width="4" stroke-miterlimit="10"/>
<path d="M72 40.5C72 36.375 68.6237 33 64.4612 33C59.0038 33 56.2288 36.75 53.5 40.5C50.7712 44.25 47.9962 48 42.5387 48C38.3762 48 35 44.625 35 40.5" stroke="url(#paint1_linear_233_347)" stroke-width="4" stroke-miterlimit="10"/>
<path d="M86.5344 49.9579V30.5969H89.072V47.4325H97.0017V49.9579H86.5344ZM99.549 34.6375V31.9438H102.087V34.6375H99.549ZM99.549 49.9579V35.9843H102.087V49.9579H99.549ZM133.834 34.6375V31.9438H136.372V34.6375H133.834ZM133.834 49.9579V35.9843H136.372V49.9579H133.834ZM116.33 41.077C116.251 40.5299 116.132 39.9406 115.933 39.3514C115.735 38.7622 115.418 38.215 115.061 37.7099C114.665 37.2049 114.189 36.784 113.554 36.4894C112.92 36.1948 112.166 36.0264 111.255 36.0264C110.065 36.0264 109.074 36.279 108.242 36.8261C107.845 37.0786 107.528 37.3732 107.21 37.7099V36.0264H104.673V49.9999H107.21V43.0552H107.25C107.25 42.2135 107.33 41.5401 107.528 40.9508C107.686 40.3615 107.924 39.8986 108.242 39.5619C108.559 39.2252 108.915 38.9726 109.312 38.8043C109.709 38.6359 110.144 38.5517 110.62 38.5517C111.334 38.5517 111.889 38.7201 112.325 39.0147C112.762 39.3094 113.078 39.7302 113.356 40.1932C113.594 40.6983 113.753 41.2034 113.832 41.7926C113.911 42.3818 113.951 42.929 113.951 43.4761V49.9999H116.528V42.5502C116.449 42.1293 116.41 41.6242 116.33 41.077ZM180.41 41.077C180.331 40.5299 180.212 39.9406 180.014 39.3514C179.816 38.7622 179.498 38.215 179.141 37.7099C178.745 37.2049 178.27 36.784 177.635 36.4894C177.001 36.1948 176.248 36.0264 175.336 36.0264C174.146 36.0264 173.155 36.279 172.322 36.8261C171.926 37.0786 171.608 37.3732 171.291 37.7099V36.0264H168.753V49.9999H171.291V43.0552H171.331C171.331 42.2135 171.41 41.5401 171.608 40.9508C171.767 40.3615 172.005 39.8986 172.322 39.5619C172.639 39.2252 172.996 38.9726 173.393 38.8043C173.789 38.6359 174.225 38.5517 174.701 38.5517C175.415 38.5517 175.97 38.7201 176.406 39.0147C176.842 39.3094 177.16 39.7302 177.397 40.1932C177.635 40.6983 177.794 41.2034 177.873 41.7926C177.952 42.3818 177.992 42.929 177.992 43.4761V49.9999H180.569V42.5502C180.529 42.1293 180.49 41.6242 180.41 41.077ZM130.256 43.6866H131.525C131.604 42.0872 131.445 40.7403 130.97 39.5619C130.494 38.4255 129.78 37.4995 128.868 36.9102C127.917 36.279 126.767 35.9843 125.459 35.9843C124.19 35.9843 123.04 36.279 122.088 36.8682C121.137 37.4574 120.384 38.2571 119.829 39.3514C119.274 40.4036 119.035 41.6663 119.035 43.0973C119.035 44.4441 119.313 45.6647 119.868 46.717C120.423 47.7692 121.176 48.5689 122.168 49.116C123.159 49.7053 124.309 49.9999 125.617 49.9999C126.886 49.9999 128.036 49.6632 129.107 49.0318C130.137 48.4006 130.931 47.4746 131.445 46.2961L128.948 45.4964C128.631 46.1698 128.155 46.717 127.599 47.0537C127.005 47.4325 126.331 47.6009 125.538 47.6009C124.309 47.6009 123.397 47.222 122.763 46.4224C122.247 45.7489 121.93 44.8651 121.851 43.7707H129.107H130.256V43.6866ZM122.643 39.4777C123.278 38.678 124.23 38.2571 125.498 38.2571C126.648 38.2571 127.52 38.6359 128.076 39.3514C128.472 39.8565 128.75 40.6141 128.868 41.5401H121.771C121.93 40.6983 122.247 40.0248 122.643 39.4777ZM145.025 49.9579C143.676 49.9579 142.527 49.6632 141.575 49.0318C140.623 48.4426 139.909 47.6009 139.394 46.5486C138.879 45.4964 138.641 44.2758 138.641 42.971C138.641 41.6242 138.918 40.4036 139.434 39.3514C139.949 38.2992 140.663 37.4574 141.615 36.8682C142.566 36.279 143.716 35.9843 145.025 35.9843C146.452 35.9843 147.681 36.3631 148.712 37.0786C149.742 37.7941 150.417 38.8043 150.734 40.0248L148.196 40.7403C147.959 39.9828 147.522 39.4356 146.967 39.0147C146.412 38.5938 145.739 38.3833 144.985 38.3833C144.152 38.3833 143.478 38.5938 142.923 38.9726C142.368 39.3514 141.972 39.8986 141.734 40.6141C141.456 41.2875 141.337 42.0872 141.337 42.971C141.337 44.3179 141.654 45.4543 142.289 46.2961C142.883 47.1379 143.795 47.5587 145.025 47.5587C145.857 47.5587 146.492 47.3483 147.007 46.9695C147.522 46.5907 147.919 46.0436 148.157 45.328L150.734 45.9594C150.298 47.2642 149.584 48.2322 148.593 48.9477C147.641 49.6211 146.412 49.9579 145.025 49.9579ZM159.744 49.9579C158.435 49.9579 157.285 49.6632 156.334 49.074C155.382 48.4847 154.629 47.6429 154.114 46.5907C153.598 45.5385 153.32 44.3179 153.32 42.971C153.32 41.5821 153.598 40.3615 154.114 39.3094C154.669 38.2571 155.382 37.4574 156.373 36.8682C157.325 36.279 158.475 35.9843 159.744 35.9843C161.052 35.9843 162.202 36.279 163.153 36.8682C164.106 37.4574 164.859 38.2992 165.414 39.3514C165.929 40.4036 166.207 41.6242 166.207 42.971C166.207 44.36 165.929 45.5806 165.414 46.6328C164.898 47.685 164.145 48.4847 163.153 49.116C162.162 49.6632 161.052 49.9579 159.744 49.9579ZM159.744 47.5587C161.013 47.5587 161.925 47.1379 162.559 46.2961C163.194 45.4543 163.51 44.36 163.51 42.971C163.51 41.5821 163.194 40.4878 162.559 39.6461C161.925 38.8043 161.013 38.3833 159.744 38.3833C158.872 38.3833 158.197 38.5938 157.642 38.9726C157.087 39.3514 156.691 39.8986 156.413 40.572C156.136 41.2454 156.017 42.0451 156.017 42.929C156.017 44.3179 156.334 45.4122 156.968 46.254C157.563 47.1379 158.515 47.5587 159.744 47.5587ZM188.786 49.9579C187.2 49.9579 185.892 49.6211 184.86 48.9056C183.87 48.1901 183.235 47.18 182.997 45.9173L185.614 45.4964C185.772 46.1698 186.169 46.717 186.724 47.1379C187.319 47.5167 188.033 47.7271 188.905 47.7271C189.698 47.7271 190.332 47.5587 190.769 47.222C191.205 46.8853 191.442 46.4645 191.442 45.8752C191.442 45.5385 191.363 45.286 191.205 45.0755C191.046 44.8651 190.729 44.6546 190.214 44.4863C189.698 44.3179 188.945 44.0654 187.914 43.7707C186.804 43.4761 185.892 43.1394 185.217 42.8027C184.543 42.466 184.068 42.0451 183.79 41.6242C183.513 41.1612 183.354 40.6141 183.354 39.9828C183.354 39.1831 183.552 38.4675 183.988 37.8783C184.425 37.2891 185.019 36.8261 185.772 36.4894C186.526 36.1527 187.438 35.9843 188.469 35.9843C189.46 35.9843 190.372 36.1527 191.165 36.4473C191.958 36.784 192.593 37.2049 193.068 37.7941C193.544 38.3833 193.861 39.0568 193.94 39.8565L191.324 40.3195C191.244 39.6881 190.927 39.1831 190.451 38.8043C189.936 38.4255 189.302 38.215 188.508 38.215C187.755 38.173 187.121 38.2992 186.645 38.5938C186.169 38.8884 185.931 39.2672 185.931 39.7723C185.931 40.0669 186.01 40.3195 186.209 40.5299C186.407 40.7403 186.764 40.9508 187.279 41.1192C187.795 41.2875 188.588 41.5401 189.618 41.7926C190.729 42.0872 191.601 42.3818 192.236 42.7606C192.87 43.0973 193.346 43.5182 193.623 43.9812C193.901 44.4441 194.06 45.0334 194.06 45.7069C194.06 47.0116 193.584 48.0638 192.632 48.7793C191.76 49.579 190.451 49.9579 188.786 49.9579Z" fill="black"/>
<defs>
<linearGradient id="paint0_linear_233_347" x1="35" y1="36.75" x2="53.5142" y2="36.75" gradientUnits="userSpaceOnUse">
<stop offset="0.2862" stop-color="#D6D6D6"/>
<stop offset="1" stop-color="#7B7B7B"/>
</linearGradient>
<linearGradient id="paint1_linear_233_347" x1="35" y1="40.5" x2="72.0144" y2="40.5" gradientUnits="userSpaceOnUse">
<stop offset="0.16" stop-color="#D6D6D6"/>
<stop offset="0.84" stop-color="#8D8D8D"/>
</linearGradient>
</defs>
</svg>
