<svg width="136" height="36" viewBox="0 0 136 36" fill="none" xmlns="http://www.w3.org/2000/svg">
<g clip-path="url(#clip0_233_354)">
<path d="M125.184 21.9842L135.934 8.78612H130.657L121.019 20.617V20.5412L116.652 25.9322L115.701 27.1051C115.674 27.1518 115.648 27.1998 115.62 27.2466L113.982 29.2564C113.679 29.5371 113.358 29.7978 113.02 30.0341C111.583 31.0359 109.866 31.6182 107.999 31.6187V31.6874C106.757 31.6852 105.584 31.4262 104.514 30.9589C102.905 30.255 101.529 29.0752 100.56 27.5924C99.5918 26.1073 99.0279 24.3325 99.0269 22.4022C99.0269 21.1137 99.2781 19.8978 99.7314 18.7886C100.412 17.124 101.554 15.7024 102.989 14.7004C104.425 13.6991 106.142 13.1171 108.01 13.1163C109.984 13.1171 111.793 13.7676 113.276 14.877L115.644 11.4986C113.504 9.89197 110.855 8.94221 108.01 8.94277C106.218 8.94277 104.5 9.31966 102.941 10.0016C100.602 11.0244 98.618 12.7286 97.2136 14.8753C95.8101 17.0207 94.9887 19.6218 94.9896 22.4022C94.9896 22.4481 94.9932 22.4948 94.9932 22.5413H94.9225C94.9225 23.8284 94.6713 25.0451 94.2171 26.1544C93.5362 27.8178 92.3956 29.2403 90.9612 30.2418C89.5247 31.243 87.807 31.8255 85.94 31.8266C84.6934 31.8258 83.5173 31.5666 82.4435 31.0971C80.8344 30.3943 79.4587 29.2141 78.4889 27.7309C78.0356 27.0357 77.6713 26.2754 77.412 25.4663C77.2449 25.3818 77.0645 25.2867 76.8735 25.1814C75.9533 24.672 74.8001 23.9287 73.8543 22.9532C73.4581 22.5435 73.103 22.1387 72.7844 21.747C72.8053 22.0082 72.8176 22.2728 72.8176 22.5413C72.8176 23.8284 72.5671 25.0451 72.1126 26.1544C71.4326 27.8178 70.2905 29.2403 68.8561 30.2418C67.4196 31.243 65.7018 31.8255 63.835 31.8266C62.5887 31.8258 61.4123 31.5666 60.3385 31.0971C58.729 30.3943 57.3537 29.2141 56.3848 27.7309C55.4156 26.2463 54.8521 24.4704 54.8517 22.5413C54.8517 21.2534 55.103 20.0366 55.5567 18.9269C56.2367 17.2633 57.3787 15.8417 58.8133 14.8397C60.2498 13.8384 61.9669 13.2556 63.835 13.2552C65.0804 13.2552 66.2571 13.5153 67.3309 13.9842C68.9405 14.6875 70.3156 15.8674 71.2849 17.3503C71.3068 17.3841 71.3274 17.4182 71.3486 17.4524L71.3549 17.45L71.3551 17.453L71.3612 17.4683C71.3616 17.4706 71.3637 17.4746 71.3647 17.4779C71.402 17.5371 71.4367 17.5988 71.4727 17.6584C71.5633 17.8689 71.7437 18.2681 72.0289 18.7888C72.0576 18.8408 72.0882 18.8957 72.1191 18.9506C72.1424 19.0084 72.1685 19.0648 72.1904 19.1229C72.4553 19.569 72.7926 20.0818 73.2093 20.6316C73.2321 20.6619 73.253 20.6913 73.2763 20.7212C73.6406 21.2056 74.0689 21.7108 74.5594 22.206C74.5624 22.2097 74.5653 22.2126 74.5679 22.2153C74.5718 22.2195 74.5758 22.2226 74.5793 22.2268C74.6571 22.3053 74.7356 22.3824 74.817 22.4597C74.8489 22.4895 74.8802 22.5194 74.9122 22.5488C75.426 23.0313 76.0023 23.4978 76.6555 23.917C77.3894 24.3884 78.2165 24.7978 79.1322 25.0922C80.0482 25.3874 81.0527 25.5662 82.1262 25.5832H82.1275C82.2202 25.5847 82.3107 25.5858 82.4009 25.5858C84.1311 25.5861 85.6824 25.3066 87.0444 24.8087C88.0667 24.436 88.9796 23.9422 89.7808 23.3702C90.983 22.5106 91.9314 21.4803 92.6703 20.4245C93.4092 19.3665 93.9415 18.2824 94.3295 17.2818C94.626 16.5159 94.7783 15.755 94.7783 15.0264C94.7783 14.6071 94.7284 14.2024 94.6351 13.8252C94.4728 13.1647 94.1826 12.6006 93.8599 12.1566C93.3721 11.4877 92.8263 11.0709 92.4019 10.8005C91.9731 10.5314 91.6539 10.407 91.5587 10.3714L91.5515 10.395C89.8504 9.55449 87.9437 9.08187 85.94 9.08224C84.1475 9.08187 82.4297 9.45821 80.8706 10.1405C79.3448 10.8082 77.9715 11.7661 76.8096 12.9472V0.0222168H72.7733V11.2805C73.0199 11.5245 73.2763 11.7893 73.5422 12.0783C74.5633 13.1879 75.2249 14.2602 75.8055 15.2464C76.3872 16.2354 76.8895 17.1316 77.5952 17.9496C77.7023 18.0749 77.8162 18.1981 77.9349 18.3205C78.6285 16.9181 79.6608 15.7178 80.9186 14.8397C82.3539 13.8384 84.0721 13.2556 85.94 13.2552C87.5775 13.2556 89.098 13.7034 90.4188 14.4897L90.4347 14.4608C90.5211 14.5306 90.5999 14.6114 90.6439 14.6808C90.6765 14.7298 90.6974 14.7722 90.7128 14.821C90.7273 14.8698 90.7409 14.9267 90.7409 15.0264C90.7409 15.1602 90.7155 15.3819 90.5808 15.7317C90.3272 16.3871 89.992 17.0785 89.5629 17.735C89.2411 18.2274 88.8665 18.7008 88.4345 19.1321C87.7837 19.7793 87.0073 20.3351 86.0331 20.7426C85.059 21.1494 83.8793 21.4119 82.4009 21.4122C82.3316 21.4122 82.2627 21.4119 82.1937 21.4109H82.1927C81.582 21.4002 81.0322 21.3115 80.5213 21.1653C79.6306 20.9093 78.8567 20.4738 78.1768 19.9385C77.9392 19.7516 77.7148 19.551 77.5026 19.3437C77.5026 19.3427 77.503 19.3401 77.5043 19.3382C77.4023 19.2411 77.3047 19.1428 77.2093 19.0448C76.6511 18.4499 76.1951 17.8206 75.8605 17.2785C75.6051 16.866 75.3423 16.5222 75.2235 16.2777C75.1643 16.1549 75.0462 15.9643 75.0462 15.9643C74.4423 14.9348 73.8145 13.8886 72.8114 12.7974C72.7983 12.783 72.7851 12.771 72.7733 12.7565V12.7572C72.2577 12.2544 71.7051 11.7928 71.1156 11.3814C69.0401 9.93101 66.5243 9.08114 63.835 9.08224C62.0425 9.08187 60.3252 9.45821 58.7658 10.1405C56.4266 11.1639 54.4425 12.8679 53.0389 15.0143C51.6356 17.1596 50.8134 19.7604 50.8142 22.5413C50.8134 24.3934 51.1782 26.1692 51.838 27.7801C52.8278 30.1985 54.4762 32.2488 56.5533 33.6997C58.6289 35.151 61.1448 36.0004 63.835 35.9999C65.6269 36.0001 67.3449 35.6231 68.9038 34.9408C71.243 33.9177 73.2266 32.214 74.6307 30.0675C74.7186 29.932 74.8046 29.7956 74.888 29.6566C75.8582 31.2634 77.1436 32.6415 78.6576 33.6997C80.7336 35.151 83.2494 36.0004 85.94 35.9999C87.7312 36.0001 89.4493 35.6231 91.0084 34.9408C93.3458 33.9177 95.3314 32.214 96.734 30.0675C96.8319 29.9188 96.9262 29.7676 97.0169 29.6137C97.9807 31.179 99.2436 32.5238 100.73 33.5607C102.805 35.0116 105.32 35.8609 108.01 35.8606C109.801 35.8609 111.521 35.4842 113.078 34.802C114.536 34.165 115.855 33.2633 116.982 32.155V35.9125H121.019V27.0965L122.534 25.2378L130.823 35.9125H136L125.184 21.9842ZM121.019 0.0222168H116.982V22.3375C116.982 22.9429 116.925 23.5318 116.817 24.1026L121.019 18.9162V0.0222168Z" fill="#5B5B5B"/>
<path d="M23.1329 9.59539V20.532C23.1329 25.6268 20.1068 28.7041 15.5195 28.7041C10.9318 28.7041 7.71114 25.6268 7.71114 20.532V0H0V20.532C0 29.8646 6.05117 35.6661 15.5195 35.6661C24.9385 35.6661 30.8441 29.8646 30.8441 20.532V0H30.7086C26.642 1.34964 23.6083 5.07443 23.1329 9.59539Z" fill="url(#paint0_linear_233_354)"/>
<path d="M37.4451 0H37.3126V35.3135H45.0239V9.60249C44.9511 5.67821 41.514 1.35051 37.4451 0Z" fill="url(#paint1_linear_233_354)"/>
<path d="M23.1329 9.59539V20.532C23.1329 20.5386 23.1325 20.5451 23.1325 20.5524C23.1343 20.6611 23.14 20.769 23.14 20.8786C23.14 28.2441 17.7733 34.3107 10.8626 35.1373C12.3008 35.4836 13.8565 35.6661 15.5196 35.6661C24.9386 35.6661 30.8441 29.8646 30.8441 20.532V0H30.7087C26.6421 1.34964 23.6084 5.07443 23.1329 9.59539Z" fill="url(#paint2_linear_233_354)"/>
<path d="M7.71114 9.61311V0H0V0.00155815C4.09975 1.35363 7.17188 5.07755 7.71114 9.61311Z" fill="url(#paint3_linear_233_354)"/>
<path d="M37.3126 24.8486V35.3134H44.9298C40.6821 33.764 37.5844 29.6989 37.3126 24.8486Z" fill="url(#paint4_linear_233_354)"/>
</g>
<defs>
<linearGradient id="paint0_linear_233_354" x1="26.3893" y1="32.2188" x2="5.28104" y2="-3.15163" gradientUnits="userSpaceOnUse">
<stop stop-color="#2535C5"/>
<stop offset="0.169697" stop-color="#36409B"/>
<stop offset="0.575758" stop-color="#475BC6"/>
<stop offset="1" stop-color="#7075E4"/>
</linearGradient>
<linearGradient id="paint1_linear_233_354" x1="41.1683" y1="0" x2="41.1683" y2="35.3136" gradientUnits="userSpaceOnUse">
<stop stop-color="#D7D7D7"/>
<stop offset="0.472727" stop-color="#D1D1D1"/>
<stop offset="1" stop-color="#717171"/>
</linearGradient>
<linearGradient id="paint2_linear_233_354" x1="20.8532" y1="0" x2="20.8532" y2="35.6663" gradientUnits="userSpaceOnUse">
<stop stop-color="#233593"/>
<stop offset="0.472727" stop-color="#4957D7"/>
<stop offset="0.890909" stop-color="#5465FF"/>
<stop offset="1" stop-color="#6A67FF"/>
</linearGradient>
<linearGradient id="paint3_linear_233_354" x1="2.91443" y1="6.04283" x2="7.87646" y2="-0.0571855" gradientUnits="userSpaceOnUse">
<stop stop-color="#3A4A9C"/>
<stop offset="0.327273" stop-color="#475BC6"/>
<stop offset="1" stop-color="#7090E4"/>
</linearGradient>
<linearGradient id="paint4_linear_233_354" x1="41.4114" y1="29.7191" x2="36.6186" y2="35.3149" gradientUnits="userSpaceOnUse">
<stop stop-color="#B5B5B5"/>
<stop offset="0.193939" stop-color="#5B5B5B"/>
<stop offset="1" stop-color="#C7C7C7"/>
</linearGradient>
<clipPath id="clip0_233_354">
<rect width="136" height="36" fill="white"/>
</clipPath>
</defs>
</svg>
